<?xml version="1.0" encoding="utf-8"?>
<!-- Generator: Adobe Illustrator 24.0.1, SVG Export Plug-In . SVG Version: 6.00 Build 0)  -->
<svg version="1.1" id="Layer_1" xmlns="http://www.w3.org/2000/svg" xmlns:xlink="http://www.w3.org/1999/xlink" x="0px" y="0px"
	 viewBox="0 0 102 60.5" style="enable-background:new 0 0 102 60.5;" xml:space="preserve">
<style type="text/css">
	.st0{fill:#FFFFFF;}
	.st1{fill:#4ECDC4;}
</style>
<path class="st0" d="M36.5,16.1c0-0.9,0.4-1.1,0.9-1.1h0.9c0.2,0,0.2-0.1,0.2-0.2v-0.8c0-0.2,0-0.2-0.3-0.2c-0.2,0-1.3,0.1-4.1,0.1
	c-2.7,0-4.2-0.1-4.4-0.1c-0.2,0-0.2,0.1-0.2,0.2v0.8c0,0.2,0,0.3,0.2,0.3H31c0.8,0,1.1,0.3,1.1,1.4v2.2c0,1.6-0.1,2.5-0.7,2.8
	c-1,0.5-1.8,0.6-3.4,0.6c-2,0-3.2-0.6-4.6-2c-1.6-1.6-2.6-4.7-2.6-8.2c0-2.7,1-5.2,2.4-6.8c1.4-1.7,2.9-2.2,4.5-2.2
	c2,0,3.6,0.8,4.7,1.9c1.3,1.2,2.2,3.1,2.7,4.6c0.1,0.3,0.2,0.3,0.4,0.3l0.8-0.2c0.1,0,0.1-0.2,0.1-0.5L36,2.5c0-0.3-0.1-0.5-0.4-0.5
	c-0.2,0-0.2,0.1-0.4,0.3l-0.3,0.5c-0.2,0.2-0.4,0.3-0.7,0.1c-1-0.6-3.2-1.5-6.3-1.5c-3.6,0-6.3,1-8.5,2.9c-2.2,1.9-3.5,4.8-3.5,7.5
	c0,3.6,0.9,6.2,2.8,8.3c2.1,2.4,5.6,3.4,8.7,3.4c3.8,0,6.4-0.7,8.8-1.9c0.3-0.1,0.5-0.2,0.5-0.5c0-0.2-0.1-0.5-0.1-1V16.1z
	 M47.3,23.4c2,0,3.8-0.6,5.2-2.1c1.2-1.3,1.9-2.9,1.9-4.7c0-1.8-0.6-3.4-2.1-4.8C51,10.6,49.6,10,47.5,10c-1.4,0-2.9,0.3-4.5,1.5
	c-1.8,1.4-2.6,3.6-2.6,5c0,1.9,0.5,3.5,1.6,4.7C43.6,23,45.1,23.4,47.3,23.4z M47.4,22.2c-1.1,0-1.6-0.5-2-1.3
	c-0.6-1.3-0.8-2.4-0.8-4.2c0-2.4,0.4-3.7,1-4.7c0.4-0.6,0.9-0.8,1.6-0.8c1.3,0,2.5,1.7,2.5,5.2C49.8,19.7,49.1,22.2,47.4,22.2z
	 M63,23.4c2,0,3.8-0.6,5.2-2.1c1.2-1.3,1.9-2.9,1.9-4.7c0-1.8-0.6-3.4-2.1-4.8c-1.3-1.3-2.8-1.9-4.8-1.9c-1.4,0-2.9,0.3-4.5,1.5
	c-1.8,1.4-2.6,3.6-2.6,5c0,1.9,0.5,3.5,1.6,4.7C59.3,23,60.8,23.4,63,23.4z M63.2,22.2c-1.1,0-1.6-0.5-2-1.3
	c-0.6-1.3-0.8-2.4-0.8-4.2c0-2.4,0.4-3.7,1-4.7c0.4-0.6,0.9-0.8,1.6-0.8c1.3,0,2.5,1.7,2.5,5.2C65.6,19.7,64.9,22.2,63.2,22.2z
	 M81,10.4c-0.6-0.2-1.4-0.4-2.4-0.4c-1.9,0-3.3,0.6-4.4,1.9c-1.7,1.9-2.1,3.4-2.1,5.8c0,2,0.7,3.2,1.9,4.3c1.4,1.3,2,1.4,3.6,1.4
	c1.3,0,3.1-0.7,4-1.8l0.5,1.5c0.1,0.2,0.2,0.3,0.4,0.3l4.5-1.1c0.2-0.1,0.2-0.1,0.2-0.3L87,21.4c0-0.1-0.2-0.2-0.5-0.2
	c-0.7,0.1-1.1,0.1-1.3-0.3c-0.3-0.5-0.3-1.6-0.3-2.8v-6.6c0-4.2,0.1-8.6,0.2-10.1c0-0.3-0.1-0.5-0.3-0.5c-0.2,0-0.4,0.1-0.8,0.2
	c-1,0.2-3.3,0.4-5.1,0.5c-0.2,0-0.2,0.1-0.2,0.2v0.6c0,0.1,0,0.2,0.2,0.2c1.6,0.4,1.9,0.9,2,1.7L81,10.4z M81,19.4
	c0,0.7-0.1,1.2-0.3,1.4c-0.3,0.3-0.6,0.6-1.4,0.6c-1.9,0-3.4-2.5-3.4-6c0-1.4,0.2-2.5,1-3.4c0.4-0.6,1-0.8,1.6-0.8
	c0.8,0,1.8,0.5,2.3,1.4c0.2,0.4,0.2,0.9,0.2,1.4L81,19.4z M14.3,46.5c4.2,0,7.1-2.4,8.9-5c0.1-0.2,0.1-0.3,0-0.4l-0.5-0.5
	c-0.1-0.1-0.3,0-0.5,0.2c-1.1,1.7-3.7,3.2-7.1,3.2c-1,0-2.7-0.2-4.7-2.2c-2.1-2.2-2.7-5.9-2.7-7.8c0-4.4,1.8-8.4,6.2-8.4
	c2.3,0,3.9,1,5.2,2.2c1.3,1.3,2.1,2.8,2.4,4c0.1,0.3,0.2,0.4,0.4,0.3l0.7-0.2c0.1,0,0.2-0.2,0.1-0.4c-0.1-0.9-0.7-6-0.7-6.6
	c0-0.4-0.1-0.5-0.5-0.5c-0.4,0-0.5,0-0.6,0.2l-0.2,0.8c-0.1,0.2-0.2,0.2-0.6,0c-1.1-0.6-3.3-1.3-6-1.3c-3.7,0-6.2,1.4-7.9,3.2
	c-2.1,2.2-3.1,5-3.1,8.1c0,2.6,1,6,3.3,8C8.2,45.4,10.3,46.5,14.3,46.5z M40.1,45.2c0.1,0,0.2-0.1,0.2-0.2l-0.1-0.6
	c0-0.1-0.1-0.2-0.4-0.1c-0.4,0.1-0.8,0.1-1,0.1c-0.1,0-0.5-0.1-0.5-1c-0.1-0.5-0.1-2-0.1-3.5v-2.2c0-3,0.2-3.8,0.2-4.1
	c0-0.2-0.1-0.3-0.3-0.3c-0.1,0-0.2,0-0.4,0c-0.1,0-0.3,0.1-0.5,0.1h-4.5c-0.3,0-0.4,0-0.4,0.3v0.6c0,0.1,0.1,0.2,0.5,0.2
	c0.8,0.1,1.3,0.3,1.3,1l0,7c0,0.3-0.2,0.8-0.5,1.1c-0.5,0.6-1.1,1-1.6,1c-0.5,0-1,0.1-1.5-0.6c-0.8-1.2-0.6-3.4-0.6-4.6v-1.6
	c0-2.4,0.1-3.8,0.1-4.1c0-0.2-0.1-0.4-0.3-0.4c-0.1,0-0.2,0-0.3,0c-0.1,0-0.2,0.1-0.4,0.1h-4.4c-0.3,0-0.3,0.1-0.3,0.2v0.6
	c0,0.1,0.2,0.1,0.7,0.2c0.4,0.1,1,0.3,1,1c0,0.7,0,1.9,0,3l0,1.3c0,2.6-0.1,3.5,1.1,5.2c1,1.4,1.9,1.4,3.1,1.4c1.6,0,3.4-0.9,4-2
	h0.2l0.2,1.6c0,0.2,0.2,0.4,0.5,0.4c0.3,0,0.5-0.1,0.7-0.1L40.1,45.2z M46.8,28.6c0-0.8-0.7-1.7-2.1-1.7c-1.3,0-2.2,0.9-2.2,1.8
	c0,1.2,0.9,2,2.1,2C46.1,30.6,46.8,29.5,46.8,28.6z M48.9,45.8v-0.6c0-0.2-0.1-0.3-0.3-0.3h-1.1c-0.3,0-0.5-0.2-0.5-0.8
	c0-0.3,0-1.4,0-2.6v-3.2c0-2.6,0-4.5,0.1-5c0-0.2-0.1-0.4-0.3-0.4c-0.2,0-0.5,0.1-0.8,0.2l-4.5,1.4c-0.3,0.1-0.3,0.2-0.3,0.2v0.3
	c0,0.2,0,0.3,0.4,0.4c1.3,0.5,1.4,1,1.4,1.9l0.1,4.2c0,0.8,0,1.8-0.1,2.7c0,0.5-0.2,0.6-0.6,0.6h-1.1c-0.2,0-0.3,0.1-0.3,0.2v0.6
	c0,0.2,0.1,0.3,0.2,0.3c0.3,0,1.5-0.1,3.2-0.1c2.6,0,4,0.1,4.2,0.1C48.8,46.1,48.9,46,48.9,45.8z M59.1,34.2c0-0.2-0.1-0.4-0.5-0.6
	C58,33.3,57,33,55.4,33c-1.3,0-2.1,0.2-3.3,1.1c-1.1,0.8-1.6,2-1.6,3.4c0,2.2,1.5,3.2,3.7,3.8c2,0.6,2.8,1,2.8,2.2
	c0,1-0.7,1.8-1.8,1.8c-1.4,0-2.1-0.8-2.6-1.5L51.4,42c-0.1-0.1-0.1-0.1-0.2-0.1L50.7,42c-0.1,0-0.2,0.1-0.2,0.2l0.4,2.9
	c0,0.2,0.1,0.3,0.2,0.4c0.4,0.3,1.8,0.9,3.5,0.9c3.3,0,5.4-1.9,5.4-4.6c0-1.1-0.2-1.8-1-2.6c-0.9-1-1.6-1.2-3.1-1.6
	c-2.2-0.6-2.6-0.9-2.6-2c0-1,0.9-1.6,1.8-1.6c0.9,0,1.5,0.5,1.9,0.9l1.7,1.8c0.1,0.1,0.2,0.2,0.3,0.1l0.5-0.2
	c0.1-0.1,0.2-0.1,0.1-0.3L59.1,34.2z M67.1,28.6c0-0.8-0.7-1.7-2.1-1.7c-1.3,0-2.2,0.9-2.2,1.8c0,1.2,0.9,2,2.1,2
	C66.5,30.6,67.1,29.5,67.1,28.6z M69.2,45.8v-0.6c0-0.2-0.1-0.3-0.3-0.3h-1.1c-0.3,0-0.5-0.2-0.5-0.8c0-0.3,0-1.4,0-2.6v-3.2
	c0-2.6,0-4.5,0.1-5c0-0.2-0.1-0.4-0.3-0.4c-0.2,0-0.5,0.1-0.8,0.2l-4.5,1.4c-0.3,0.1-0.3,0.2-0.3,0.2v0.3c0,0.2,0,0.3,0.4,0.4
	c1.3,0.5,1.4,1,1.4,1.9l0.1,4.2c0,0.8,0,1.8-0.1,2.7c0,0.5-0.2,0.6-0.6,0.6h-1.1c-0.2,0-0.3,0.1-0.3,0.2v0.6c0,0.2,0.1,0.3,0.2,0.3
	c0.3,0,1.5-0.1,3.2-0.1c2.6,0,4,0.1,4.2,0.1C69.2,46.1,69.2,46,69.2,45.8z M75.5,33.3c-0.1-0.2-0.2-0.4-0.4-0.4
	c-0.2,0-0.5,0.1-0.7,0.2l-3.8,1.7c-0.1,0.1-0.3,0.2-0.3,0.3v0.3c0,0.1,0,0.2,0.2,0.3l0.3,0.1c0.7,0.3,1.2,0.8,1.2,1.7v6.7
	c0,0.5-0.5,0.6-0.8,0.6h-0.4c-0.2,0-0.3,0.1-0.3,0.3v0.6c0,0.2,0.1,0.3,0.2,0.3c0.2,0,1.1-0.1,3.3-0.1c2,0,2.8,0.1,3,0.1
	c0.2,0,0.2-0.1,0.2-0.3v-0.6c0-0.2-0.1-0.3-0.3-0.3h-0.4c-0.3,0-0.5-0.5-0.5-1l0.1-6.1c0-1.2,0.2-2,0.6-2.3c0.6-0.5,1-0.6,1.5-0.6
	c0.5,0,0.9,0.1,1.5,0.5c0.6,0.6,0.7,1.4,0.7,2.5v3.2c0,1.4-0.1,2.3-0.2,3.1C80,44.8,79.8,45,79.6,45h-0.3c-0.3,0-0.4,0.1-0.4,0.3
	v0.5c0,0.2,0.1,0.3,0.2,0.3c0.2,0,1.2-0.1,3.2-0.1c2.4,0,3.3,0.1,3.5,0.1c0.2,0,0.2-0.1,0.2-0.3v-0.5C86,45,86,45,85.7,45h-0.8
	c-0.3,0-0.8-0.2-0.7-1c0.1-1.1,0.1-2.5,0.1-3.5v-3.2c0-1.5-0.1-2.2-1.4-3.4C82.1,33.1,81,33,79.8,33c-1,0-1.7,0.2-2.3,0.6
	c-0.6,0.3-1.1,0.7-1.4,1.1h-0.2L75.5,33.3z M98.2,38.5c0.7,0,0.9,0,0.9-0.4c0-0.5-0.3-5.1-5.1-5.1c-2.3,0-4.1,0.9-5.2,2.5
	c-1.3,2-1.3,3.6-1.3,4.4c0,2.3,0.5,3.5,2.1,5.2c1,1.1,2.6,1.4,4.5,1.4c2.8,0,4.8-2.1,5.3-3.2c0.3-0.5,0.2-0.7,0.1-0.7l-0.5-0.3
	c-0.1-0.1-0.2-0.1-0.3,0.1c-0.6,1-1.8,1.7-3.3,1.7c-2.2,0-4-1.5-4-4.7v-0.8H98.2z M91.3,37.4c0.2-2.1,1-3.2,2.4-3.2
	c0.9,0,1.5,1.3,1.5,2.6c0,0.5-0.3,0.6-1,0.6H91.3z"/>
<rect x="1.4" y="47.8" class="st1" width="99" height="11"/>
</svg>
